<?xml version="1.0" encoding="UTF-8"?>
<svg id="Ebene_1" xmlns="http://www.w3.org/2000/svg" version="1.1" viewBox="0 0 1600 500">
  <!-- Generator: Adobe Illustrator 29.5.1, SVG Export Plug-In . SVG Version: 2.1.0 Build 141)  -->
  <defs>
    <style>
      .st0 {
        fill: #e2baff;
      }

      .st1 {
        fill: #fff;
      }

      .st2 {
        fill: #9aa4ad;
      }

      .st3 {
        fill: #0d1117;
      }
    </style>
  </defs>
  <rect class="st3" width="1600" height="500"/>
  <g>
    <path class="st0" d="M358.2,311.6l13.1-7.6v-54.7l47.1-27.2v-15.1l-13.1-7.6-47.4,27.4-46.8-27-13.1,7.6v15.1l47.1,27.2v54.4l13.1,7.5Z"/>
    <path class="st0" d="M478.4,153.6l-120.2-69.4-120.2,69.4v30.2l120.2-69.4,120.2,69.4v-30.2Z"/>
    <path class="st0" d="M478.4,296.6l-120.2,69.4-120.2-69.4v30.2l120.2,69.4,120.2-69.4v-30.2Z"/>
  </g>
  <path class="st1" d="M581.5,240.3c-14.3-8-22.6-22.8-22.6-41.4s1.9-17.6,6-24.9c7.8-14.5,22.6-23.1,41.1-23.1s17.3,2.1,24.4,6.1c14.1,8.2,22.3,23.2,22.3,41.9s-1.9,17.5-5.8,24.7c-7.8,14.4-22.6,22.8-40.9,22.8s-17.4-1.9-24.5-6.1ZM605.8,231.5c18.2,0,30.1-12.7,30.1-32.6s-12.6-33.2-30.1-33.2-30.2,12.8-30.2,33.2,12.1,32.6,30.2,32.6Z"/>
  <path class="st1" d="M673.6,176.2l8.6,15c7.8-12.3,18-15,25.9-15s11.8,1.4,16.6,4.5c4.9,3.2,8.7,7.4,11.2,12.6,2.7,5.4,4,11.4,4,18s-1.3,12.7-4,18.2c-2.5,5.2-6.4,9.3-11.3,12.3-4.7,3.1-10.1,4.5-16.5,4.5s-8.6-.9-12.7-2.7c-3.8-1.8-7.1-4.4-9.9-7.7v33h-15.8v-67.9l-9.7-17,13.6-7.9ZM685.6,211.4c0,4,.8,7.8,2.3,11,1.9,3.5,4.2,6,6.7,7.5,3,1.7,6.2,2.5,10,2.5s7.1-.8,10-2.5c2.9-1.7,5.2-4.2,6.6-7.5,1.7-3.2,2.3-7,2.3-11,0-6.5-1.7-11.7-5.1-15.3-3.5-3.9-8-5.8-14-5.8s-10.2,1.9-13.8,5.8c-3.4,3.6-5.2,8.8-5.2,15.3Z"/>
  <path class="st1" d="M752.4,193.4c2.6-5.2,6.5-9.5,11.8-12.8,5.4-3,11.4-4.4,18.3-4.4s12.6,1.4,17.1,4.2c4.9,3.1,8.6,7.3,11.2,12.5,2.3,5.3,3.6,11.7,3.6,18.7l-.3,3.8h-50.5c.5,5.8,2.6,10.2,6.2,13.6,3.6,2.9,8.4,4.2,14.1,4.2s8.3-.8,11.9-2.2c3.6-1.4,6.9-3.2,9.5-5.4.4.4,6.7,11.5,6.7,11.5-4,3-8.6,5.3-13.5,7.1-4.5,1.7-9.9,2.5-15.7,2.5s-13.2-1.4-18.3-4.4c-4.9-2.9-9-7-12.2-12.5-2.9-5.5-4.3-11.5-4.3-18.2s1.3-12.6,4.2-18ZM764.1,204.4h34.6c-.5-5.2-2.2-8.8-5.1-11.2-3.1-2.7-6.7-4.2-11.2-4.2s-8.4,1.4-11.9,3.9c-3.1,2.5-5.2,6.2-6.5,11.4Z"/>
  <path class="st1" d="M891.6,203.9v40.5h-16v-39c0-5.3-1.2-9.1-3.6-11.5-2.3-2.9-5.8-4.2-10.6-4.2s-5.7.8-8.3,2.5c-2.5,1.3-4.4,3.5-5.7,6.2-1.2,2.6-1.9,5.7-1.9,9.5v36.6h-16.1v-43.2l-9.7-17.1,13.8-7.8,8,13.8c8.2-12.2,17-13.8,23-13.8s10.9,1.2,13.6,2.5c2.7,1.3,5.2,3,7,5.1,4.4,4.8,6.6,11.5,6.6,20.1Z"/>
  <path class="st1" d="M976.1,240.8c-2.9,1.4-6.6,2.9-11.3,4.2-4.3.9-8.8,1.4-13.6,1.4-9.3,0-17.6-2.1-24.8-6-7-3.9-12.5-9.5-16.5-16.9-3.9-7.1-5.8-15.4-5.8-24.9s1.9-17.5,5.7-24.9c3.8-7.3,9.6-13,16.5-16.7,7.1-4.2,15.7-6.1,25.8-6.1s9.5.4,13.2,1.4c4.4,1,8,2.3,10.6,3.9,2.7,1.3,6,3.1,9.7,5.6l-8.2,13.9c-4-2.7-7.9-4.8-11.7-6.4-4.4-1.7-9.1-2.6-14.1-2.6s-12.3,1.3-16.7,4c-4.8,3-8.3,6.7-10.6,11.4-2.3,5.1-3.6,10.6-3.6,16.7s1.3,11.5,3.6,16.3c2.3,4.7,5.8,8.4,10.6,11.2,4.5,2.6,10.1,3.9,16.6,3.9s7.1-.4,10.2-1.2c3.4-.9,6.2-1.9,8.6-3.2,3.2-1.7,5.7-3.2,7.5-4.7l8,14c-3.9,2.3-7.1,4.3-9.9,5.6Z"/>
  <rect class="st1" x="995.6" y="150.3" width="15.8" height="94.1"/>
  <path class="st1" d="M1023.3,211.4c0-20.5,14.5-35.2,35.4-35.2s35.2,14.5,35.2,35-14.4,35.2-35.3,35.2-35.3-13.6-35.3-35ZM1058.6,232.8c11.2,0,18.8-7.9,18.8-21.5s-7.7-21.5-18.8-21.5-18.9,8.7-18.9,21.5,7.5,21.5,18.9,21.5Z"/>
  <path class="st1" d="M1130.5,246.4c-7.7,0-13.8-2.3-18.4-7.4-4.4-5.1-6.6-11.9-6.6-20.5v-40.2h15.8v39c0,5.1,1.2,9,3.6,11.7,2.3,2.6,6,3.8,10.8,3.8s5.8-.6,8.3-2.1c2.5-1.4,4.3-3.6,5.6-6.4,1.4-2.9,2.1-6.1,2.1-9.5v-36.6h16v43.6l9.6,16.7-13.6,7.8-7.7-13.1s-3,3.9-7,7.3c-4.9,4.2-10.1,5.8-18.4,5.8Z"/>
  <path class="st1" d="M1186.4,193.4c3-5.8,6.5-10.1,11.3-12.6,4.8-3,10.4-4.7,16.3-4.7s9.2,1,12.8,2.9,7,4.2,9.7,7.7v-36.3h15.8v71.5l9.5,16.7-13.6,7.8-8.3-14.4s-5.7,8-13.1,11.7c-3.1,1.6-8,2.7-12.7,2.7s-11.7-1.4-16.5-4.5c-4.7-2.5-8.3-6.7-11.3-12.2-2.7-5.4-3.9-11.3-3.9-18.2s1.2-13,3.9-18ZM1198.7,211.4c0,4.4.8,7.9,2.3,10.9,1.8,3.6,4.2,5.8,6.6,7.4,2.9,1.7,6,2.6,9.9,2.6s7.3-.9,10-2.6c2.7-1.6,5.1-3.9,6.7-7.4,1.6-3,2.3-6.5,2.3-10.9,0-6.5-1.7-11.9-5.3-15.3-3.1-3.9-7.9-6-13.6-6s-10.4,2.1-13.6,6c-3.6,3.4-5.3,8.8-5.3,15.3Z"/>
  <path class="st2" d="M626.6,306.9l-10.5,17.2v11.4h-3.9v-11.4l-10.5-17.2h3.4c.3,0,.6,0,.8.2.2.2.4.4.5.6l6.6,11.1c.2.5.5.9.7,1.3.2.4.4.8.5,1.2.1-.4.3-.8.5-1.2.2-.4.4-.8.6-1.3l6.5-11.1c.1-.2.3-.4.5-.6.2-.2.5-.3.8-.3h3.4M637.9,315c1.5,0,2.8.2,4,.7,1.2.5,2.2,1.2,3,2.1s1.5,2,1.9,3.3c.4,1.3.7,2.7.7,4.3s-.2,3-.7,4.3c-.4,1.3-1.1,2.4-1.9,3.3s-1.9,1.6-3,2.1c-1.2.5-2.5.7-4,.7s-2.8-.2-4-.7c-1.2-.5-2.2-1.2-3-2.1-.8-.9-1.5-2-1.9-3.3-.4-1.3-.7-2.7-.7-4.3s.2-3,.7-4.3c.4-1.3,1.1-2.4,1.9-3.3.8-.9,1.9-1.6,3-2.1,1.2-.5,2.5-.7,4-.7M637.9,333.1c2,0,3.5-.7,4.5-2,1-1.3,1.5-3.2,1.5-5.6s-.5-4.3-1.5-5.6c-1-1.3-2.5-2-4.5-2-1,0-1.9.2-2.6.5-.8.3-1.4.8-1.9,1.5-.5.7-.9,1.5-1.1,2.4-.2,1-.4,2-.4,3.2,0,2.4.5,4.3,1.5,5.6,1,1.3,2.5,2,4.5,2M665.2,315.3h3.6v20.3h-2.1c-.5,0-.8-.2-1-.7l-.3-2.2c-.9,1-1.9,1.8-3,2.4-1.1.6-2.3.9-3.8.9-1.1,0-2.1-.2-2.9-.5-.8-.4-1.6-.9-2.1-1.5-.6-.7-1-1.5-1.3-2.4-.3-.9-.4-2-.4-3.1v-12.9h3.6v12.9c0,1.5.4,2.7,1.1,3.6s1.8,1.3,3.2,1.3,2-.2,3-.8,1.8-1.2,2.5-2.1v-14.9M677.5,316.3l.2,3.1c.6-1.4,1.4-2.5,2.4-3.2.9-.8,2.1-1.2,3.4-1.2s.8,0,1.2.1c.4,0,.7.2,1,.4l-.3,2.7c0,.3-.3.5-.6.5s-.5,0-.8-.1-.8-.1-1.2-.1-1.2,0-1.7.3c-.5.2-.9.5-1.3.8-.4.4-.7.8-1.1,1.4-.3.5-.6,1.2-.8,1.9v12.8h-3.6v-20.3h2c.4,0,.7,0,.8.2s.2.4.3.8M704.1,335.6h-3.6v-17.2l-2.2-.3c-.3,0-.5-.2-.7-.3s-.3-.3-.3-.6v-1.5h3.2v-2c0-1.2.2-2.2.5-3.1.3-.9.8-1.7,1.4-2.3s1.3-1.1,2.2-1.4c.9-.3,1.8-.5,2.9-.5s1.7.1,2.5.4v1.8c-.1.3-.3.5-.6.5s-.8,0-1.3,0-1.2,0-1.7.2-.9.4-1.3.8c-.4.4-.6.8-.8,1.4-.2.6-.3,1.3-.3,2.2v1.9h5.8v2.6h-5.7v17.3M713.4,315.3h3.6v20.3h-3.6v-20.3M717.7,309c0,.3,0,.7-.2,1-.1.3-.3.6-.6.8s-.5.4-.8.5c-.3.1-.6.2-1,.2s-.7,0-1-.2c-.3-.1-.6-.3-.8-.5-.2-.2-.4-.5-.5-.8-.1-.3-.2-.6-.2-1s0-.7.2-1,.3-.6.5-.8c.2-.2.5-.4.8-.5.3-.1.6-.2,1-.2.3,0,.7,0,1,.2.3.1.6.3.8.5s.4.5.6.8.2.6.2,1M722.9,306.1h3.6v29.5h-3.6v-29.5M734.7,323.2h11.1c0-.8-.1-1.6-.4-2.3s-.6-1.3-1-1.8c-.4-.5-1-.9-1.6-1.2-.6-.3-1.4-.4-2.2-.4-1.7,0-3.1.5-4,1.5s-1.6,2.4-1.8,4.1M747.7,331.4l1,1.3c-.4.5-1,1-1.6,1.4-.6.4-1.3.7-2,1-.7.3-1.4.4-2.2.6-.7.1-1.5.2-2.2.2-1.4,0-2.7-.2-3.9-.7-1.2-.5-2.2-1.2-3.1-2.1-.9-.9-1.5-2-2-3.4s-.7-2.9-.7-4.6.2-2.7.7-4c.4-1.2,1.1-2.3,1.9-3.2.8-.9,1.8-1.6,3-2.1,1.2-.5,2.5-.8,4-.8s2.3.2,3.4.6,1.9,1,2.7,1.8,1.3,1.7,1.8,2.8c.4,1.1.6,2.4.6,3.9s0,.9-.2,1.1c-.1.2-.3.3-.7.3h-13.5c0,1.3.2,2.4.5,3.3.3.9.8,1.7,1.3,2.4s1.2,1.1,2,1.4c.8.3,1.6.5,2.6.5s1.7-.1,2.3-.3,1.2-.4,1.7-.7c.5-.2.9-.5,1.2-.7.3-.2.6-.3.8-.3s.5.1.7.3M766,317.4l-.8,1.3c-.2.3-.4.4-.7.4s-.4,0-.7-.2c-.3-.1-.6-.3-.9-.5-.4-.2-.8-.3-1.3-.5-.5-.2-1.1-.2-1.8-.2-.6,0-1.1,0-1.6.2-.5.2-.9.4-1.2.6-.3.3-.6.6-.8.9s-.3.7-.3,1.1.1,1,.4,1.3c.3.3.7.6,1.2.9s1.1.5,1.7.7c.6.2,1.3.4,1.9.6.7.2,1.3.5,1.9.7s1.2.6,1.7,1c.5.4.9.9,1.2,1.5.3.6.5,1.3.5,2.1s-.2,1.8-.5,2.6c-.3.8-.8,1.5-1.5,2.1-.7.6-1.5,1-2.4,1.4-.9.3-2,.5-3.3.5-1.4,0-2.7-.2-3.8-.7-1.1-.5-2.1-1-2.9-1.8l.8-1.4c.1-.2.2-.3.4-.4.1,0,.3-.1.6-.1.2,0,.5,0,.8.3.3.2.6.4,1,.6.4.2.8.4,1.4.6.5.2,1.2.3,2,.3s1.3,0,1.8-.3,1-.4,1.3-.7c.3-.3.6-.7.8-1.1s.2-.8.2-1.3-.1-1-.5-1.4c-.3-.4-.7-.7-1.2-.9-.5-.3-1.1-.5-1.7-.7-.6-.2-1.3-.4-1.9-.6-.7-.2-1.3-.5-1.9-.7-.6-.3-1.2-.6-1.7-1-.5-.4-.9-.9-1.2-1.5-.3-.6-.4-1.3-.4-2.2s.2-1.5.5-2.2c.3-.7.8-1.3,1.4-1.9.6-.5,1.4-1,2.3-1.3.9-.3,1.9-.5,3.1-.5s2.5.2,3.6.6c1.1.4,2,1,2.8,1.7M770.1,333.4c0-.3,0-.7.2-1,.1-.3.3-.6.5-.8s.5-.4.8-.5c.3-.1.6-.2,1-.2s.7,0,1,.2c.3.1.6.3.8.5.2.2.4.5.5.8.1.3.2.6.2,1s0,.7-.2,1c-.1.3-.3.6-.5.8-.2.2-.5.4-.8.5-.3.1-.6.2-1,.2s-.7,0-1-.2c-.3-.1-.6-.3-.8-.5s-.4-.5-.5-.8c-.1-.3-.2-.6-.2-1M812.5,306.9l-10.5,17.2v11.4h-3.9v-11.4l-10.5-17.2h3.4c.3,0,.6,0,.8.2.2.2.4.4.5.6l6.6,11.1c.2.5.5.9.7,1.3.2.4.4.8.5,1.2.1-.4.3-.8.5-1.2.2-.4.4-.8.6-1.3l6.5-11.1c.1-.2.3-.4.5-.6.2-.2.5-.3.8-.3h3.4M823.9,315c1.5,0,2.8.2,4,.7,1.2.5,2.2,1.2,3,2.1.8.9,1.5,2,1.9,3.3.4,1.3.7,2.7.7,4.3s-.2,3-.7,4.3c-.4,1.3-1.1,2.4-1.9,3.3-.8.9-1.9,1.6-3,2.1-1.2.5-2.5.7-4,.7s-2.8-.2-4-.7c-1.2-.5-2.2-1.2-3-2.1-.8-.9-1.5-2-1.9-3.3-.4-1.3-.7-2.7-.7-4.3s.2-3,.7-4.3c.4-1.3,1.1-2.4,1.9-3.3.8-.9,1.9-1.6,3-2.1,1.2-.5,2.5-.7,4-.7M823.9,333.1c2,0,3.5-.7,4.5-2,1-1.3,1.5-3.2,1.5-5.6,0-2.4-.5-4.3-1.5-5.6-1-1.3-2.5-2-4.5-2-1,0-1.9.2-2.7.5-.8.3-1.4.8-1.9,1.5-.5.7-.9,1.5-1.1,2.4s-.4,2-.4,3.2c0,2.4.5,4.3,1.5,5.6,1,1.3,2.5,2,4.5,2M851.1,315.3h3.6v20.3h-2.1c-.5,0-.8-.2-1-.7l-.3-2.2c-.9,1-1.9,1.8-3,2.4-1.1.6-2.3.9-3.8.9-1.1,0-2.1-.2-2.9-.5s-1.6-.9-2.1-1.5c-.6-.7-1-1.5-1.3-2.4-.3-.9-.4-2-.4-3.1v-12.9h3.6v12.9c0,1.5.3,2.7,1,3.6.7.8,1.8,1.3,3.2,1.3s2-.2,3-.8c.9-.5,1.8-1.2,2.5-2.1v-14.9M863.4,316.3l.2,3.1c.6-1.4,1.4-2.5,2.4-3.2.9-.8,2.1-1.2,3.4-1.2s.8,0,1.2.1c.4,0,.7.2,1.1.4l-.3,2.7c0,.3-.3.5-.6.5s-.5,0-.8-.1-.8-.1-1.2-.1-1.2,0-1.7.3c-.5.2-.9.5-1.3.8-.4.4-.7.8-1.1,1.4-.3.5-.6,1.2-.9,1.9v12.8h-3.6v-20.3h2c.4,0,.7,0,.8.2.1.1.2.4.3.8M900.1,317.6l-.9,1.3c-.1.1-.2.3-.3.3-.1,0-.3.1-.4.1s-.4,0-.7-.2c-.2-.2-.5-.3-.9-.5-.4-.2-.8-.4-1.3-.6-.5-.2-1.1-.2-1.9-.2-1,0-1.9.2-2.6.5-.8.4-1.4.9-1.9,1.5-.5.7-.9,1.5-1.2,2.4s-.4,2-.4,3.2c0,1.2.1,2.3.4,3.3.3,1,.7,1.8,1.2,2.4s1.1,1.1,1.9,1.5,1.5.5,2.5.5,1.6-.1,2.1-.3c.6-.2,1-.4,1.4-.7s.7-.5.9-.7c.2-.2.5-.3.7-.3s.5.1.7.3l1,1.3c-.4.5-.9,1-1.5,1.4-.6.4-1.2.7-1.8,1-.6.3-1.3.4-2,.6s-1.4.2-2.2.2c-1.3,0-2.4-.2-3.5-.7-1.1-.5-2-1.1-2.8-2-.8-.9-1.4-2-1.9-3.3-.5-1.3-.7-2.8-.7-4.4s.2-2.9.6-4.2c.4-1.3,1-2.4,1.8-3.3.8-.9,1.8-1.7,3-2.2,1.2-.5,2.5-.8,4.1-.8s2.7.2,3.8.7c1.1.5,2.1,1.1,2.9,2M904.3,306.1h3.6v29.5h-3.6v-29.5M922.2,315c1.5,0,2.8.2,4,.7,1.2.5,2.2,1.2,3,2.1s1.5,2,1.9,3.3c.4,1.3.7,2.7.7,4.3,0,1.6-.2,3-.7,4.3-.4,1.3-1.1,2.4-1.9,3.3s-1.9,1.6-3,2.1c-1.2.5-2.5.7-4,.7s-2.8-.2-4-.7c-1.2-.5-2.2-1.2-3-2.1-.8-.9-1.5-2-1.9-3.3-.4-1.3-.7-2.7-.7-4.3s.2-3,.7-4.3c.4-1.3,1.1-2.4,1.9-3.3.8-.9,1.9-1.6,3-2.1,1.2-.5,2.5-.7,4-.7M922.2,333.1c2,0,3.5-.7,4.5-2,1-1.3,1.5-3.2,1.5-5.6s-.5-4.3-1.5-5.6c-1-1.3-2.5-2-4.5-2-1,0-1.9.2-2.6.5-.8.3-1.4.8-1.9,1.5-.5.7-.9,1.5-1.1,2.4-.2,1-.4,2-.4,3.2,0,2.4.5,4.3,1.5,5.6,1,1.3,2.5,2,4.5,2M949.4,315.3h3.6v20.3h-2.1c-.5,0-.8-.2-1-.7l-.3-2.2c-.9,1-1.9,1.8-3,2.4-1.1.6-2.3.9-3.8.9-1.1,0-2.1-.2-2.9-.5s-1.6-.9-2.1-1.5c-.6-.7-1-1.5-1.3-2.4-.3-.9-.4-2-.4-3.1v-12.9h3.6v12.9c0,1.5.4,2.7,1.1,3.6s1.8,1.3,3.2,1.3,2-.2,3-.8,1.8-1.2,2.5-2.1v-14.9M971.8,329.9v-9.8c-.7-.9-1.4-1.5-2.2-1.9s-1.6-.5-2.6-.5c-1.9,0-3.3.7-4.3,2-1,1.3-1.5,3.3-1.5,5.8s.1,2.4.3,3.4c.2.9.6,1.7,1,2.3.4.6,1,1.1,1.6,1.3.6.3,1.4.4,2.2.4,1.2,0,2.2-.3,3.1-.8.9-.5,1.7-1.3,2.4-2.3M971.8,306.1h3.6v29.5h-2.1c-.5,0-.8-.2-1-.7l-.3-2.5c-.9,1-1.9,1.9-3,2.5-1.1.6-2.4,1-3.8,1s-2.2-.2-3.2-.7-1.8-1.1-2.4-2c-.7-.9-1.2-1.9-1.5-3.2s-.5-2.8-.5-4.5.2-2.9.6-4.2c.4-1.3,1-2.4,1.7-3.4.7-.9,1.7-1.7,2.8-2.2,1.1-.5,2.3-.8,3.7-.8s2.3.2,3.2.6,1.7,1,2.4,1.8v-11.2M980.4,333.4c0-.3,0-.7.2-1,.1-.3.3-.6.5-.8s.5-.4.8-.5c.3-.1.6-.2,1-.2s.7,0,1,.2c.3.1.6.3.8.5s.4.5.5.8c.1.3.2.6.2,1s0,.7-.2,1-.3.6-.5.8-.5.4-.8.5c-.3.1-.6.2-1,.2s-.7,0-1-.2c-.3-.1-.6-.3-.8-.5s-.4-.5-.5-.8-.2-.6-.2-1M1022.8,306.9l-10.5,17.2v11.4h-3.9v-11.4l-10.5-17.2h3.4c.3,0,.6,0,.8.2.2.2.4.4.5.6l6.6,11.1c.2.5.5.9.7,1.3.2.4.4.8.5,1.2.1-.4.3-.8.5-1.2.2-.4.4-.8.6-1.3l6.5-11.1c.1-.2.3-.4.5-.6.2-.2.5-.3.8-.3h3.4M1034.2,315c1.5,0,2.8.2,4,.7,1.2.5,2.2,1.2,3,2.1.8.9,1.5,2,1.9,3.3.4,1.3.7,2.7.7,4.3,0,1.6-.2,3-.7,4.3-.4,1.3-1.1,2.4-1.9,3.3-.8.9-1.9,1.6-3,2.1-1.2.5-2.5.7-4,.7s-2.8-.2-4-.7c-1.2-.5-2.2-1.2-3.1-2.1-.8-.9-1.5-2-1.9-3.3-.4-1.3-.7-2.7-.7-4.3s.2-3,.7-4.3c.4-1.3,1.1-2.4,1.9-3.3.8-.9,1.9-1.6,3.1-2.1,1.2-.5,2.5-.7,4-.7M1034.2,333.1c2,0,3.5-.7,4.5-2,1-1.3,1.5-3.2,1.5-5.6s-.5-4.3-1.5-5.6c-1-1.3-2.5-2-4.5-2-1,0-1.9.2-2.6.5-.8.3-1.4.8-1.9,1.5-.5.7-.9,1.5-1.1,2.4-.2,1-.4,2-.4,3.2,0,2.4.5,4.3,1.5,5.6,1,1.3,2.5,2,4.5,2M1061.4,315.3h3.6v20.3h-2.1c-.5,0-.8-.2-1-.7l-.3-2.2c-.9,1-1.9,1.8-3,2.4-1.1.6-2.3.9-3.8.9-1.1,0-2.1-.2-2.9-.5-.8-.4-1.6-.9-2.1-1.5-.6-.7-1-1.5-1.3-2.4-.3-.9-.4-2-.4-3.1v-12.9h3.6v12.9c0,1.5.4,2.7,1,3.6.7.8,1.8,1.3,3.2,1.3s2-.2,3-.8,1.8-1.2,2.5-2.1v-14.9M1073.8,316.3l.2,3.1c.6-1.4,1.4-2.5,2.4-3.2.9-.8,2.1-1.2,3.4-1.2s.8,0,1.2.1.7.2,1,.4l-.3,2.7c0,.3-.3.5-.6.5s-.5,0-.8-.1-.8-.1-1.2-.1-1.2,0-1.7.3c-.5.2-.9.5-1.3.8-.4.4-.7.8-1.1,1.4-.3.5-.6,1.2-.8,1.9v12.8h-3.6v-20.3h2c.4,0,.7,0,.8.2s.2.4.3.8M1101.7,335.9c-1.6,0-2.8-.4-3.7-1.3-.9-.9-1.3-2.2-1.3-3.9v-12.4h-2.4c-.2,0-.4,0-.5-.2-.1-.1-.2-.3-.2-.6v-1.4l3.3-.4.8-6.3c0-.2.1-.4.3-.5.1-.1.3-.2.5-.2h1.8v7h5.9v2.6h-5.9v12.2c0,.9.2,1.5.6,1.9.4.4.9.6,1.6.6s.7,0,1-.1c.3-.1.5-.2.7-.3.2-.1.4-.2.5-.3s.3-.1.4-.1c.2,0,.4.1.5.3l1,1.7c-.6.6-1.4,1-2.2,1.4-.9.3-1.8.5-2.7.5M1112.3,323.2h11.1c0-.8-.1-1.6-.3-2.3s-.6-1.3-1-1.8-1-.9-1.6-1.2-1.4-.4-2.2-.4c-1.7,0-3.1.5-4,1.5s-1.6,2.4-1.9,4.1M1125.2,331.4l1,1.3c-.4.5-1,1-1.6,1.4-.6.4-1.3.7-2,1-.7.3-1.4.4-2.2.6-.7.1-1.5.2-2.2.2-1.4,0-2.7-.2-3.9-.7-1.2-.5-2.2-1.2-3.1-2.1-.9-.9-1.5-2-2-3.4s-.7-2.9-.7-4.6.2-2.7.7-4c.4-1.2,1.1-2.3,1.9-3.2.8-.9,1.8-1.6,3-2.1,1.2-.5,2.5-.8,4-.8s2.3.2,3.4.6,1.9,1,2.7,1.8c.8.8,1.3,1.7,1.8,2.8.4,1.1.6,2.4.6,3.9s0,.9-.2,1.1c-.1.2-.3.3-.7.3h-13.5c0,1.3.2,2.4.5,3.3.3.9.7,1.7,1.3,2.4.6.6,1.2,1.1,2,1.4.8.3,1.6.5,2.6.5s1.7-.1,2.3-.3c.6-.2,1.2-.4,1.7-.7.5-.2.9-.5,1.2-.7.3-.2.6-.3.8-.3s.5.1.7.3M1134,316.3l.2,3.1c.6-1.4,1.4-2.5,2.4-3.2.9-.8,2.1-1.2,3.4-1.2s.8,0,1.2.1.7.2,1.1.4l-.3,2.7c0,.3-.3.5-.6.5s-.5,0-.8-.1-.8-.1-1.2-.1-1.2,0-1.7.3c-.5.2-.9.5-1.3.8-.4.4-.7.8-1.1,1.4-.3.5-.6,1.2-.8,1.9v12.8h-3.6v-20.3h2c.4,0,.7,0,.8.2s.2.4.3.8M1149,335.6h-3.6v-20.3h2.1c.5,0,.8.2.9.7l.3,2.1c.7-.9,1.6-1.7,2.5-2.3s2-.9,3.2-.9,2.5.4,3.3,1.1,1.5,1.8,1.8,3.1c.3-.7.7-1.4,1.1-1.9.5-.5,1-1,1.6-1.3.6-.3,1.2-.6,1.8-.8.6-.2,1.3-.2,2-.2,1.1,0,2,.2,2.8.5.8.3,1.5.8,2.1,1.5.6.7,1,1.5,1.3,2.4.3,1,.5,2,.5,3.3v12.9h-3.6v-12.9c0-1.6-.3-2.8-1-3.6s-1.7-1.2-3-1.2-1.1.1-1.7.3c-.5.2-1,.5-1.4.9-.4.4-.7.9-1,1.5-.2.6-.3,1.3-.3,2.1v12.9h-3.6v-12.9c0-1.6-.3-2.8-1-3.6-.7-.8-1.6-1.2-2.9-1.2s-1.7.2-2.4.7c-.7.5-1.4,1.1-2.1,1.9v15.1M1191,317.4l-.8,1.3c-.2.3-.4.4-.7.4s-.4,0-.7-.2-.6-.3-.9-.5c-.4-.2-.8-.3-1.3-.5s-1.1-.2-1.8-.2c-.6,0-1.1,0-1.6.2s-.9.4-1.2.6c-.3.3-.6.6-.8.9-.2.4-.3.7-.3,1.1s.2,1,.5,1.3c.3.3.7.6,1.2.9s1.1.5,1.7.7c.6.2,1.3.4,1.9.6.7.2,1.3.5,1.9.7.6.3,1.2.6,1.7,1,.5.4.9.9,1.2,1.5.3.6.4,1.3.4,2.1s-.2,1.8-.5,2.6c-.3.8-.8,1.5-1.5,2.1-.7.6-1.5,1-2.4,1.4-.9.3-2,.5-3.3.5-1.4,0-2.7-.2-3.8-.7-1.1-.5-2.1-1-2.9-1.8l.8-1.4c.1-.2.2-.3.4-.4.1,0,.3-.1.6-.1.2,0,.5,0,.8.3.3.2.6.4,1,.6.4.2.8.4,1.4.6.5.2,1.2.3,2,.3s1.3,0,1.8-.3,1-.4,1.3-.7c.3-.3.6-.7.8-1.1s.2-.8.2-1.3-.2-1-.4-1.4c-.3-.4-.7-.7-1.2-.9-.5-.3-1.1-.5-1.7-.7-.6-.2-1.3-.4-1.9-.6-.7-.2-1.3-.5-1.9-.7-.6-.3-1.2-.6-1.7-1-.5-.4-.9-.9-1.2-1.5-.3-.6-.5-1.3-.5-2.2s.2-1.5.5-2.2c.3-.7.8-1.3,1.4-1.9.6-.5,1.4-1,2.3-1.3.9-.3,1.9-.5,3.1-.5s2.5.2,3.6.6c1.1.4,2,1,2.8,1.7M1195.1,333.4c0-.3,0-.7.2-1,.1-.3.3-.6.5-.8s.5-.4.8-.5c.3-.1.6-.2,1-.2s.7,0,1,.2c.3.1.6.3.8.5.2.2.4.5.5.8.1.3.2.6.2,1s0,.7-.2,1c-.1.3-.3.6-.5.8-.2.2-.5.4-.8.5-.3.1-.6.2-1,.2s-.7,0-1-.2c-.3-.1-.6-.3-.8-.5s-.4-.5-.5-.8c-.1-.3-.2-.6-.2-1"/>
</svg>
